<svg width="45" height="46" viewBox="0 0 45 46" fill="none" xmlns="http://www.w3.org/2000/svg">
<g clip-path="url(#clip0_328_834)">
<path d="M12.3322 4.42827L12.1721 4.23623L12.3322 4.42827C8.69518 7.45972 6.60967 11.9107 6.60967 16.6409C6.60967 21.4475 8.75724 25.943 12.5031 28.9758L12.3458 29.1701L12.5031 28.9758C14.3555 30.4757 15.414 32.7563 15.414 35.2274V35.2278V35.2281L15.414 38.163C15.414 40.4524 17.277 42.3152 19.5663 42.3152H21.0337H21.2837V42.5652V44.0327C21.2837 44.705 21.8288 45.2501 22.5011 45.2501C23.1735 45.2501 23.7186 44.705 23.7186 44.0327V42.5652V42.3152H23.9686L25.436 42.3152C27.7254 42.3152 29.5882 40.4523 29.5882 38.163V35.2281C29.5882 32.7523 30.6384 30.4772 32.4781 28.9928L32.6351 29.1873L32.4781 28.9928C37.0021 25.3426 39.1434 19.6204 38.1522 13.8404C36.0731 1.71676 21.5728 -3.27386 12.3322 4.42827ZM26.9034 36.4455H27.1534V36.6955V38.1629C27.1534 39.1101 26.3832 39.8803 25.436 39.8803L19.5663 39.8803C18.6191 39.8803 17.8489 39.1101 17.8489 38.1629L17.8489 36.6955V36.4455H18.0989L26.9034 36.4455ZM23.9686 21.293H23.7186V21.043V19.5756C23.7186 17.0101 25.8054 14.9233 28.3708 14.9233H29.8382H30.0882V15.1733V16.6408C30.0882 19.2063 28.0014 21.293 25.436 21.293H23.9686ZM14.0351 27.0835L14.1924 26.8892L14.0351 27.0835C10.8639 24.5158 9.04443 20.7092 9.04434 16.6409C9.04434 12.6357 10.8112 8.86576 13.8911 6.29868L14.0512 6.49072L13.8911 6.29868C21.6962 -0.206766 33.9896 3.9721 35.7525 14.2519L35.5061 14.2942L35.7525 14.2519C36.5982 19.1835 34.8031 23.9884 30.9493 27.0978C28.9016 28.75 27.5937 31.1358 27.2463 33.793L27.2179 34.0106H26.9984L23.9686 34.0106H23.7186V33.7606V23.9779V23.7279H23.9686H25.436C29.3436 23.7279 32.5231 20.5484 32.5231 16.6408V13.7059C32.5231 13.0336 31.978 12.4885 31.3057 12.4885H28.3708C26.0555 12.4885 23.9957 13.6047 22.701 15.3286L22.5011 15.5947L22.3012 15.3286C21.0066 13.6047 18.9468 12.4885 16.6314 12.4885H13.6966C13.0242 12.4885 12.4792 13.0336 12.4792 13.7059V16.6408C12.4792 20.5484 15.6587 23.7279 19.5663 23.7279H21.0337H21.2837V23.9779V33.7607V34.0107H21.0337H18.0031H17.7838L17.7552 33.7933C17.406 31.14 16.0923 28.7491 14.0351 27.0835ZM21.2837 21.043V21.293H21.0337H19.5663C17.0008 21.293 14.914 19.2062 14.914 16.6408V15.1733V14.9233H15.164H16.6314C19.197 14.9233 21.2837 17.0102 21.2837 19.5756V21.043Z" fill="#1B1718" stroke="#FBEFF2" stroke-width="0.5"/>
</g>
<defs>
<clipPath id="clip0_328_834">
<rect width="45" height="45" fill="white" transform="matrix(-1 0 0 1 45 0.5)"/>
</clipPath>
</defs>
</svg>
