<svg width="24" height="24" viewBox="0 0 24 24" fill="none" xmlns="http://www.w3.org/2000/svg">
<path d="M14.7312 0.923828H7.30959C6.51569 0.923828 5.75653 1.20484 5.11007 1.81806L1.94961 4.94201C1.38785 5.50377 1.01392 6.28144 1.01392 7.17308V17.198C1.01392 18.9437 2.43459 20.3639 4.18068 20.3639H13.9178C14.7922 21.6688 16.0252 22.5845 17.6356 23.0425C17.7949 23.088 17.9696 23.0906 18.1395 23.043C22.443 21.8242 23.3913 17.6158 22.8468 14.1137C22.7946 13.6824 22.5404 13.3069 22.1302 13.0717L18.3703 11.0398C18.2256 10.9623 18.0674 10.9223 17.9069 10.8997V4.09014C17.9069 2.34405 16.4827 0.923828 14.7312 0.923828ZM4.18068 18.5177C3.45232 18.5177 2.86007 17.9259 2.86007 17.198V7.17308C2.86007 6.80776 3.01392 6.48776 3.2513 6.25135L6.39463 3.14453C6.65545 2.89566 6.9447 2.76998 7.30959 2.76998H14.7312C15.464 2.76998 16.0608 3.36223 16.0608 4.09014V11.5717L13.2979 13.0703C12.8984 13.2842 12.6014 13.6933 12.5767 14.1448C12.5767 14.2452 12.3059 16.3763 13.0004 18.5177H4.18068ZM21.0503 14.5865C21.2468 16.0969 21.3928 20.0164 17.888 21.1887C15.7431 20.4737 14.7219 18.7304 14.4395 16.4782C14.342 15.6806 14.3629 14.9835 14.3913 14.5775L17.7077 12.78L21.0503 14.5865Z" fill="#818588"/>
<path d="M13.1157 9.50511C13.1157 8.99534 12.7028 8.58203 12.1926 8.58203H6.72264C6.21242 8.58203 5.79956 8.99534 5.79956 9.50511C5.79956 10.0149 6.21242 10.4282 6.72264 10.4282H12.1926C12.7028 10.4282 13.1157 10.0149 13.1157 9.50511Z" fill="#818588"/>
<path d="M9.45761 12.8184H6.72264C6.21242 12.8184 5.79956 13.2317 5.79956 13.7414C5.79956 14.2512 6.21242 14.6645 6.72264 14.6645H9.45761C9.96783 14.6645 10.3807 14.2512 10.3807 13.7414C10.3807 13.2317 9.96783 12.8184 9.45761 12.8184Z" fill="#818588"/>
</svg>
