<svg width="40" height="40" viewBox="0 0 40 40" fill="none" xmlns="http://www.w3.org/2000/svg">
<path d="M5.43677 34.2859L25.0128 14.7098M14.5071 25.2156L14.8443 24.9435C15.1715 24.6597 15.4678 24.3417 15.7281 23.9945C17.7513 21.297 17.2046 17.47 14.5071 15.4468L14.1698 15.719C13.8427 16.0027 13.5463 16.3208 13.286 16.6679C11.2628 19.3655 11.8095 23.1924 14.5071 25.2156ZM14.5071 25.2156L14.7792 25.5529C15.063 25.88 15.3811 26.1764 15.7282 26.4367C18.4257 28.4599 22.2526 27.9132 24.2758 25.2156L24.0036 24.8784C23.7199 24.5512 23.4018 24.2548 23.0547 23.9945C20.3571 21.9713 16.5302 22.5181 14.5071 25.2156ZM19.3914 20.3312L19.7287 20.0591C20.0558 19.7753 20.3522 19.4573 20.6125 19.1101C22.6357 16.4126 22.089 12.5856 19.3914 10.5624L19.0542 10.8345C18.727 11.1183 18.4307 11.4364 18.1704 11.7835C16.1472 14.4811 16.6938 18.308 19.3914 20.3312ZM19.3914 20.3312L19.6636 20.6685C19.9474 20.9956 20.2654 21.292 20.6126 21.5523C23.3101 23.5755 27.137 23.0288 29.1602 20.3312L28.888 19.994C28.6042 19.6668 28.2862 19.3704 27.939 19.1101C25.2415 17.0869 21.4146 17.6337 19.3914 20.3312ZM24.2758 15.4468L24.613 15.1747C24.9402 14.8909 25.2365 14.5729 25.4969 14.2257C27.5201 11.5282 26.9734 7.7012 24.2758 5.678L23.9386 5.95015C23.6114 6.23391 23.3151 6.55195 23.0547 6.89907C21.0315 9.59665 21.5782 13.4236 24.2758 15.4468ZM24.2758 15.4468L24.5479 15.7841C24.8317 16.1112 25.1498 16.4076 25.4969 16.6679C28.1945 18.6911 32.0214 18.1444 34.0445 15.4468L33.7724 15.1096C33.4886 14.7824 33.1705 14.486 32.8234 14.2257C30.1258 12.2025 26.2989 12.7492 24.2758 15.4468ZM9.50707 30.2156L9.8443 29.9435C10.1715 29.6597 10.4678 29.3417 10.7281 28.9945C12.7513 26.297 12.2046 22.47 9.50707 20.4468L9.16984 20.719C8.84268 21.0027 8.54634 21.3208 8.286 21.6679C6.2628 24.3655 6.80949 28.1924 9.50707 30.2156ZM9.50707 30.2156L9.77923 30.5529C10.063 30.88 10.3811 31.1764 10.7282 31.4367C13.4257 33.4599 17.2526 32.9132 19.2758 30.2156L19.0036 29.8784C18.7199 29.5512 18.4018 29.2548 18.0547 28.9945C15.3571 26.9713 11.5302 27.5181 9.50707 30.2156ZM34.2238 5.49984C34.7007 8.83797 32.3812 11.9306 29.0432 12.4074C28.6136 12.4688 28.1792 12.4841 27.7472 12.4535L27.3163 12.4074C26.8394 9.0693 29.1589 5.9767 32.497 5.49984C33.0697 5.41802 33.6511 5.41802 34.2238 5.49984Z" stroke="#1B1718" stroke-width="1.66667" stroke-linecap="round"/>
</svg>
