<svg width="24" height="24" viewBox="0 0 24 24" fill="none" xmlns="http://www.w3.org/2000/svg">
<path fill-rule="evenodd" clip-rule="evenodd" d="M19.25 3.25V7.25C19.25 7.664 19.586 8 20 8C20.414 8 20.75 7.664 20.75 7.25V3.25C20.75 2.836 20.414 2.5 20 2.5C19.586 2.5 19.25 2.836 19.25 3.25Z" fill="#1B1718"/>
<path fill-rule="evenodd" clip-rule="evenodd" d="M18 6H22C22.414 6 22.75 5.664 22.75 5.25C22.75 4.836 22.414 4.5 22 4.5H18C17.586 4.5 17.25 4.836 17.25 5.25C17.25 5.664 17.586 6 18 6Z" fill="#1B1718"/>
<path fill-rule="evenodd" clip-rule="evenodd" d="M14 3H9.118C8.455 3 7.849 3.375 7.553 3.967L6.606 5.862C6.563 5.946 6.477 6 6.382 6H4C2.481 6 1.25 7.231 1.25 8.75V18.75C1.25 19.479 1.54 20.179 2.055 20.695C2.571 21.21 3.271 21.5 4 21.5H20C20.729 21.5 21.429 21.21 21.945 20.695C22.46 20.179 22.75 19.479 22.75 18.75C22.75 15.703 22.75 10.25 22.75 10.25C22.75 9.836 22.414 9.5 22 9.5C21.586 9.5 21.25 9.836 21.25 10.25V18.75C21.25 19.082 21.118 19.399 20.884 19.634C20.649 19.868 20.332 20 20 20H4C3.668 20 3.351 19.868 3.116 19.634C2.882 19.399 2.75 19.082 2.75 18.75V8.75C2.75 8.06 3.31 7.5 4 7.5H6.382C7.045 7.5 7.651 7.125 7.947 6.533L8.894 4.638C8.937 4.554 9.023 4.5 9.118 4.5H14C14.414 4.5 14.75 4.164 14.75 3.75C14.75 3.336 14.414 3 14 3Z" fill="#1B1718"/>
<path fill-rule="evenodd" clip-rule="evenodd" d="M12 8.5C9.378 8.5 7.25 10.628 7.25 13.25C7.25 15.872 9.378 18 12 18C14.622 18 16.75 15.872 16.75 13.25C16.75 10.628 14.622 8.5 12 8.5ZM12 10C13.794 10 15.25 11.456 15.25 13.25C15.25 15.044 13.794 16.5 12 16.5C10.206 16.5 8.75 15.044 8.75 13.25C8.75 11.456 10.206 10 12 10Z" fill="#1B1718"/>
</svg>
