<svg width="24" height="24" viewBox="0 0 24 24" fill="none" xmlns="http://www.w3.org/2000/svg">
<path d="M20.9001 9.95536L20.9002 9.95534C20.7947 9.62319 20.5976 9.32773 20.3314 9.10298L20.654 8.72096L20.3314 9.10297C20.0654 8.87836 19.7414 8.73348 19.3968 8.685C19.3965 8.68496 19.3962 8.68492 19.3959 8.68488L15.6938 8.18005L15.4307 8.14417L15.3131 7.90613L13.6493 4.5389L13.649 4.53836C13.4958 4.22731 13.2585 3.96537 12.9641 3.7822C12.6697 3.59904 12.3299 3.50195 11.9831 3.50195C11.6364 3.50195 11.2966 3.59904 11.0021 3.78219C10.7077 3.96537 10.4704 4.22731 10.3172 4.53836L10.317 4.53889L8.65315 7.90613L8.53658 8.14202L8.27615 8.17953L4.56659 8.7137C4.22938 8.76866 3.91367 8.91513 3.65391 9.13716L3.32904 8.75709L3.65391 9.13716C3.39317 9.36004 3.19886 9.65045 3.09232 9.97651C2.98579 10.3026 2.97114 10.6517 3.05 10.9855L3.05 10.9855C3.12851 11.3179 3.2967 11.6224 3.53622 11.8658L6.21653 14.4769L6.4044 14.6599L6.36062 14.9185L5.72678 18.6621L5.72633 18.6648C5.6796 18.9319 5.69198 19.2061 5.76263 19.4683L20.9001 9.95536ZM20.9001 9.95536L20.9029 9.96362M20.9001 9.95536L20.9029 9.96362M20.9029 9.96362C21.0131 10.2909 21.0299 10.6425 20.9513 10.9789C20.873 11.3141 20.7029 11.6211 20.4602 11.8654L17.739 14.5271L17.5515 14.7106L17.5958 14.9691L18.2297 18.6632L18.2301 18.6654C18.2886 18.9977 18.2549 19.3398 18.1326 19.6546C18.0103 19.9691 17.8042 20.2442 17.5368 20.4498C17.253 20.6675 16.9132 20.7999 16.5571 20.8317L16.5569 20.8317C16.2014 20.8636 15.8441 20.7938 15.5264 20.6307C15.5258 20.6304 15.5252 20.6301 15.5246 20.6298L12.2107 18.8886L11.9782 18.7664L11.7456 18.8886L8.43094 20.6302C8.4305 20.6304 8.43006 20.6306 8.42961 20.6308C8.16104 20.7693 7.86323 20.8416 7.56096 20.8418L7.56008 20.8418C7.28874 20.8423 7.02052 20.7835 6.77431 20.6693L6.564 21.1229L6.7743 20.6693C6.52816 20.5552 6.31004 20.3886 6.13527 20.1811L5.75285 20.5032M20.9029 9.96362L5.75285 20.5032M5.75285 20.5032L6.13527 20.1811M5.75285 20.5032L6.13527 20.1811M6.13527 20.1811C5.96051 19.9736 5.83332 19.7303 5.76265 19.4683L6.13527 20.1811Z" stroke="#818588"/>
</svg>
