<svg width="20" height="19" viewBox="0 0 20 19" fill="none" xmlns="http://www.w3.org/2000/svg">
<path d="M19.3767 6.80401C19.2427 6.38205 18.9923 6.0066 18.654 5.72096C18.3157 5.43532 17.9037 5.25116 17.4653 5.18971L13.7614 4.68463L12.0975 1.3174C11.903 0.922602 11.6019 0.590138 11.2282 0.357651C10.8545 0.125179 10.4232 0.00195312 9.98312 0.00195312C9.54301 0.00195312 9.1117 0.125179 8.73801 0.357651C8.36432 0.590138 8.06318 0.922602 7.86869 1.3174L6.20488 4.68463L2.49103 5.21943C2.06166 5.28849 1.65962 5.47452 1.32904 5.75709C0.998462 6.03965 0.752115 6.40784 0.61705 6.82123C0.481984 7.23461 0.463415 7.67721 0.563392 8.10045C0.663354 8.5237 0.878 8.91122 1.18375 9.22048L3.86764 11.835L3.2338 15.5787C3.17448 15.9178 3.19021 16.2659 3.27988 16.5985C3.36956 16.9309 3.531 17.2398 3.75285 17.5032C3.9747 17.7666 4.25157 17.9781 4.564 18.1229C4.87641 18.2678 5.21677 18.3425 5.56115 18.3418C5.94368 18.3416 6.32061 18.25 6.66045 18.0744L9.97816 16.3312L13.2958 18.0744C13.6981 18.2814 14.1509 18.3701 14.6016 18.3297C15.0522 18.2895 15.4821 18.1219 15.8411 17.8465C16.1812 17.5852 16.4432 17.2355 16.5986 16.8357C16.754 16.4358 16.7969 16.0011 16.7225 15.5787L16.0886 11.8846L18.8122 9.22048C19.1216 8.91003 19.3385 8.51942 19.4382 8.09255C19.5379 7.66567 19.5167 7.21944 19.3767 6.80401Z" fill="#FFC300"/>
</svg>
